<svg width="40" height="40" viewBox="0 0 40 40" fill="none" xmlns="http://www.w3.org/2000/svg">
<path d="M5 9.99998L10 3.33331H30L35 9.99998M5 9.99998V33.3333C5 34.2174 5.35119 35.0652 5.97631 35.6903C6.60143 36.3155 7.44928 36.6666 8.33333 36.6666H31.6667C32.5507 36.6666 33.3986 36.3155 34.0237 35.6903C34.6488 35.0652 35 34.2174 35 33.3333V9.99998M5 9.99998H35M26.6667 16.6666C26.6667 18.4348 25.9643 20.1304 24.714 21.3807C23.4638 22.6309 21.7681 23.3333 20 23.3333C18.2319 23.3333 16.5362 22.6309 15.286 21.3807C14.0357 20.1304 13.3333 18.4348 13.3333 16.6666" stroke="#111D13" stroke-width="3" stroke-linecap="round" stroke-linejoin="round"/>
</svg>
